HIERARCHY
ROOT bip01_pelvis
{
	OFFSET -0.141780 111.560104 -53.453648
	CHANNELS 6 Xposition Yposition Zposition Xrotation Yrotation Zrotation
	JOINT bip01_l_thigh
	{
		OFFSET -12.581326 0.000023 0.838757
		CHANNELS 3 Xrotation Yrotation Zrotation
		JOINT bip01_l_calf
		{
			OFFSET -5.405050 -43.060066 12.568863
			CHANNELS 3 Xrotation Yrotation Zrotation
			JOINT bip01_l_foot
			{
				OFFSET -6.378141 -25.639313 -28.000755
				CHANNELS 3 Xrotation Yrotation Zrotation
				JOINT bip01_l_toe0
				{
					OFFSET -1.312191 -43.345943 -5.410645
					CHANNELS 3 Xrotation Yrotation Zrotation
					End Site
					{
						OFFSET 0.668312 -0.011212 0.027710
					}
				}
			}
		}
	}
	JOINT bip01_r_thigh
	{
		OFFSET 12.581315 -0.000053 -0.838764
		CHANNELS 3 Xrotation Yrotation Zrotation
		JOINT bip01_r_calf
		{
			OFFSET 7.025425 -43.060097 11.740181
			CHANNELS 3 Xrotation Yrotation Zrotation
			JOINT bip01_r_foot
			{
				OFFSET 2.604660 -25.639347 -28.599602
				CHANNELS 3 Xrotation Yrotation Zrotation
				JOINT bip01_r_toe0
				{
					OFFSET 0.582125 -43.345810 -5.536972
					CHANNELS 3 Xrotation Yrotation Zrotation
					End Site
					{
						OFFSET 0.658720 0.011207 -0.116180
					}
				}
			}
		}
	}
	JOINT bip01_spine
	{
		OFFSET 1.130847 -10.257637 16.963192
		CHANNELS 3 Xrotation Yrotation Zrotation
		JOINT bip01_spine1
		{
			OFFSET 2.125925 -0.408882 31.891911
			CHANNELS 3 Xrotation Yrotation Zrotation
			JOINT bip01_spine2
			{
				OFFSET 3.104555 -1.436646 46.949230
				CHANNELS 3 Xrotation Yrotation Zrotation
				JOINT bip01_neck
				{
					OFFSET 1.831697 12.621635 29.209831
					CHANNELS 3 Xrotation Yrotation Zrotation
					JOINT bip01_head
					{
						OFFSET 0.933028 14.642593 15.308128
						CHANNELS 3 Xrotation Yrotation Zrotation
						JOINT bip01_ponytail1
						{
							OFFSET 12.881245 30.917107 3.869919
							CHANNELS 3 Xrotation Yrotation Zrotation
							End Site
							{
								OFFSET -0.556711 0.315430 0.195229
							}
						}
						JOINT bip01_ponytail2
						{
							OFFSET -12.308470 31.163292 5.588448
							CHANNELS 3 Xrotation Yrotation Zrotation
							End Site
							{
								OFFSET -0.577699 -0.315430 -0.119598
							}
						}
						JOINT bone01
						{
							OFFSET -0.035753 10.693596 0.910164
							CHANNELS 3 Xrotation Yrotation Zrotation
							End Site
							{
								OFFSET -0.667642 0.000000 0.042305
							}
						}
						JOINT bone03
						{
							OFFSET -2.859410 10.011330 9.974838
							CHANNELS 3 Xrotation Yrotation Zrotation
							End Site
							{
								OFFSET 0.042301 0.000000 0.667641
							}
						}
						JOINT bone05
						{
							OFFSET 4.144515 10.011345 9.531006
							CHANNELS 3 Xrotation Yrotation Zrotation
							End Site
							{
								OFFSET 0.042301 0.000000 0.667641
							}
						}
					}
					JOINT bip01_l_clavicle
					{
						OFFSET -6.817371 -1.737137 -4.124603
						CHANNELS 3 Xrotation Yrotation Zrotation
						JOINT bip01_l_upperarm
						{
							OFFSET -13.915021 0.119522 7.203735
							CHANNELS 3 Xrotation Yrotation Zrotation
							JOINT bip01_l_forearm
							{
								OFFSET 0.900768 -49.360191 -24.691143
								CHANNELS 3 Xrotation Yrotation Zrotation
								JOINT bip01_l_hand
								{
									OFFSET 5.453267 -54.192162 0.261513
									CHANNELS 3 Xrotation Yrotation Zrotation
									End Site
									{
										OFFSET -0.048247 0.019447 -0.666954
									}
								}
							}
						}
					}
					JOINT bip01_r_clavicle
					{
						OFFSET 6.291911 -1.668388 -4.989365
						CHANNELS 3 Xrotation Yrotation Zrotation
						JOINT bip01_r_upperarm
						{
							OFFSET 14.738678 0.269737 5.313599
							CHANNELS 3 Xrotation Yrotation Zrotation
							JOINT bip01_r_forearm
							{
								OFFSET -4.170362 -49.360199 -24.353104
								CHANNELS 3 Xrotation Yrotation Zrotation
								JOINT bip01_r_hand
								{
									OFFSET -5.370342 -54.192158 0.983074
									CHANNELS 3 Xrotation Yrotation Zrotation
									End Site
									{
										OFFSET 0.040714 -0.019448 0.667458
									}
								}
							}
						}
					}
				}
			}
		}
	}
	JOINT bip01_tail
	{
		OFFSET -1.140240 5.694984 -17.420544
		CHANNELS 3 Xrotation Yrotation Zrotation
		JOINT bip01_tail1
		{
			OFFSET -0.799711 -16.655739 -11.995483
			CHANNELS 3 Xrotation Yrotation Zrotation
			JOINT bip01_tail2
			{
				OFFSET -0.560408 -49.655807 -8.404999
				CHANNELS 3 Xrotation Yrotation Zrotation
				End Site
				{
					OFFSET -0.667499 0.000004 0.044495
				}
			}
		}
	}
}
MOTION
Frames: 5
Frame Time: 0.041667
-0.437314 68.444565 -30.384165 -23.992894 -5.040593 -2.828330 9.979644 -7.394289 -13.959537 46.026012 -7.806084 -1.019449 -89.737689 -5.374669 12.752821 57.173615 13.774545 5.082827 -44.768014 -5.275302 19.632511 35.662275 4.551827 -3.093826 -20.333743 -7.938112 -6.060980 58.195152 -6.991369 -8.606038 -12.658227 1.269902 3.529310 25.247210 -1.279877 -1.692906 44.507811 -0.396718 -4.124585 12.288803 1.542166 0.302724 -46.086944 -3.161528 -0.033390 26.592353 57.659835 -55.099129 37.286805 -63.152878 53.730479 -3.551957 0.168706 0.257670 0.114887 -0.437599 -0.381444 0.247048 0.258801 -0.373832 3.748401 -19.602199 30.523091 16.623687 26.944502 -38.152706 -69.015886 -11.375105 5.083572 107.843373 -6.794299 -4.033366 -3.719784 20.067823 -21.012701 19.143405 -27.685255 29.214468 -39.154599 3.931866 0.235310 95.216532 -5.725027 -12.541078 68.494776 0.721666 -3.704604 47.382108 -1.880953 -5.450674 -3.065257 -0.037363 1.258543 
-0.437313 69.753731 -30.384403 -21.658048 -5.619012 -2.113564 22.139630 -8.723171 -13.748216 38.970392 -6.599847 -1.279108 -92.718472 -7.712971 8.985572 52.132631 16.424863 6.338193 -35.632110 -7.423278 20.512296 47.118746 5.501574 -4.604896 -41.289989 -5.136958 -9.035720 57.160938 -2.136883 -9.113796 -9.922821 1.308349 3.293995 14.017616 -0.528198 -1.620902 46.617431 1.149072 -4.249906 19.167164 0.241933 1.135636 -47.991003 -2.907778 -0.965825 26.592353 57.659835 -55.099129 37.286802 -63.152872 53.730482 -3.545008 0.168440 0.257701 -0.321143 0.458399 0.326288 0.219652 0.209567 -0.384150 -7.009044 -13.004456 27.331275 7.287510 23.793041 -34.220689 -87.088935 -14.571589 3.920602 115.733772 -8.418789 -2.380348 -8.682297 18.669378 -27.948586 12.160898 -26.700763 31.017013 -16.691541 1.691787 -0.231873 104.053117 -14.150968 -12.348351 66.115869 0.751638 -3.238854 42.007893 -1.377076 -5.246244 4.519001 0.094720 0.748759 
-0.437313 73.868225 -30.384333 -18.298275 -5.278899 -1.785647 22.376533 -10.650789 -13.615723 44.621523 -7.568982 -1.083024 -88.449495 1.815394 11.026470 48.953424 7.124764 10.211218 -21.101451 -5.535562 19.297499 47.835575 5.550660 -4.705290 -59.326477 -2.986545 -8.675146 56.266409 2.739731 -9.561976 -6.826585 0.144139 3.092764 5.325049 0.953888 -1.097371 44.940408 2.340955 -4.098166 24.027658 -1.068830 2.011597 -47.982571 -2.757207 -1.121583 26.592355 57.659835 -55.099119 37.286805 -63.152872 53.730482 -3.695972 0.167363 0.268483 -0.331532 0.466756 0.324013 0.200358 0.174225 -0.414739 -16.579535 -4.601385 23.487526 -2.622022 18.931336 -30.603100 -100.810560 -16.641664 2.392646 123.502770 -9.802582 -0.834762 -13.030551 18.765639 -30.679417 8.854935 -26.432612 30.801957 -5.447665 0.543990 -0.129700 109.751933 -19.067936 -10.874195 63.688427 0.676591 -2.627548 34.006190 -0.668841 -4.850789 6.531376 0.119058 0.612454 
-0.437314 80.414032 -30.384077 -13.774510 -4.334132 -1.723061 21.008776 -13.938284 -10.950574 43.195465 -7.326556 -1.141570 -77.637524 13.127552 9.379137 47.683012 -1.220589 14.679770 -6.125037 -1.887870 15.575550 37.322322 4.708056 -3.300726 -68.754651 -3.401491 -5.018050 55.665133 5.666894 -10.421667 -3.042325 -1.918406 3.074345 -2.667197 3.008529 -0.053003 40.220105 3.445692 -3.551452 28.052142 -2.527949 3.036324 -46.630941 -2.567804 -1.100201 26.592353 57.659829 -55.099136 37.286802 -63.152872 53.730479 -3.999995 0.165444 0.289638 -0.374378 0.509434 0.358141 0.260795 0.252505 -0.472901 -23.017020 1.532950 21.891269 -17.943756 17.110484 -29.040451 -99.230177 -16.423484 2.593932 126.813363 -10.274345 -0.264891 -17.471520 21.300565 -28.935748 17.166839 -24.393771 31.011531 -16.264241 1.647932 -0.232118 112.995638 -19.605431 -9.518503 60.721522 0.515017 -1.867250 23.428609 0.167560 -4.190719 4.891931 0.099387 0.724866 
-0.437314 88.643044 -30.383699 -8.827077 -3.150314 -1.824887 23.949660 -18.658588 -8.340026 31.347259 -5.267708 -1.389606 -62.616825 20.856920 8.258923 51.605306 -2.818991 14.560129 4.221110 4.876420 11.726117 22.791732 3.147378 -1.657108 -64.489813 -7.489768 -4.898068 55.230638 5.171578 -10.783021 0.816641 -4.209429 3.216071 -9.391778 4.997972 1.261058 33.690058 4.290401 -2.753581 31.374412 -3.888263 4.080714 -44.806444 -2.209812 -1.130159 26.592363 57.659835 -55.099119 37.286809 -63.152872 53.730479 -2.068221 -0.118419 -0.017698 -0.514747 0.668561 0.466833 0.393024 0.417357 -0.627607 -26.115939 3.715676 22.839727 -28.354359 18.878639 -28.814034 -87.266472 -14.600646 3.904175 125.579298 -9.874261 -0.793939 -21.615698 25.018305 -24.946180 22.004880 -25.962323 28.058405 -23.982358 2.437376 -0.177327 114.484701 -18.383944 -8.167784 57.626436 0.227429 -1.032190 12.225615 0.906191 -3.333479 0.599172 0.034705 1.017050 
